<svg width="1304" height="1408" viewBox="0 0 1304 1408" fill="none" xmlns="http://www.w3.org/2000/svg">
<mask id="path-1-inside-1_3_24" fill="white">
<path d="M645.722 42.7735C625.224 66.5735 611.281 94.8455 611.281 112.611C611.281 126.092 621.094 142.721 633.896 150.935C640.03 154.871 646.11 160.07 647.404 162.488C648.7 164.907 650.318 166.326 651 165.642C651.684 164.959 650.594 161.881 648.576 158.803C643.451 150.982 643.9 146.958 649.35 151.89C653.657 155.786 654.1 155.651 664.203 147.375C683.277 131.744 687.566 111.113 677.731 82.2697C670.368 60.6801 658.239 32 656.472 32C655.663 32.0022 650.825 36.8488 645.722 42.7735ZM713.827 105.323C692.344 139.206 689.649 151.045 699.655 167.572C703.783 174.392 704.542 177.557 702.883 181.023C700.841 185.286 700.906 185.315 703.977 181.507C705.773 179.281 711.571 175.246 716.86 172.54C732.509 164.539 735.789 158.137 735.264 136.624C735.02 126.547 732.993 110.813 730.765 101.654L726.709 85.0046L713.827 105.323ZM566.469 109.898C556.904 149.052 559.693 162.605 579.279 172.105C584.362 174.571 589.637 178.606 591.002 181.072C592.433 183.654 593.052 184.004 592.464 181.897C591.904 179.884 593.892 173.408 596.879 167.505C602.728 155.954 603.708 145.862 599.952 135.824C596.509 126.619 574.957 88.0421 573.257 88.0421C572.459 88.0421 569.406 97.8786 566.469 109.898ZM472.494 124.068C453.792 156.505 452.817 169.594 467.19 195.293C475.18 209.582 475.431 209.795 477.068 203.679C477.992 200.227 480.2 195.746 481.978 193.722C489.125 185.575 495.246 169.861 495.051 160.155C494.887 152.058 484.854 111.12 482.431 108.663C482.065 108.293 477.595 115.225 472.494 124.068ZM813.39 116.216C805.709 145.62 804.093 153.461 804.113 161.22C804.138 171.186 812.448 190.31 819.466 196.551C822.344 199.111 824.313 203.601 824.38 207.759C824.479 213.818 825.663 212.429 833.736 196.764C848.459 168.205 846.914 157.554 822.309 118.029L815.693 107.401L813.39 116.216ZM417.873 134.221C396.653 176.613 395.626 194.984 413.409 214C417.409 218.275 418.727 221.7 417.945 225.787C417.053 230.458 417.423 231.068 419.9 229.012C421.581 227.618 422.956 224.643 422.956 222.402C422.956 217.271 426.85 214.621 427.83 219.086C429.047 224.623 442.627 214.392 447.974 203.91C455.518 189.124 454.263 175.829 443.302 154.429C438.177 144.425 431.596 133.313 428.677 129.737L423.373 123.236L417.873 134.221ZM872.769 129.374C862.238 145.44 855.198 159.036 851.091 171.224C845.051 189.151 847.688 199.716 861.518 213.016C871.652 222.758 876.703 225.175 874.403 219.18C873.692 217.331 874.228 215.818 875.593 215.818C876.959 215.818 878.075 218.217 878.075 221.149C878.075 224.079 879.842 227.863 881.999 229.555C885.577 232.359 885.644 232.276 882.759 228.605C879.981 225.067 880.185 223.841 884.431 218.517C903.883 194.132 904.008 177.772 885.03 140.06L876.663 123.431L872.769 129.374ZM524.026 154.338C495.457 180.733 490.627 194.565 502.756 215.258C505.953 220.714 508.104 226.966 507.532 229.149C505.664 236.293 532.2 216.029 536.487 207.037C540.995 197.58 542.885 170.554 540.251 153.217L538.404 141.053L524.026 154.338ZM758.3 163.699C755.713 200.702 760.504 212.648 783.352 226.139C791.975 231.23 792.887 231.38 792.95 227.715C792.988 225.486 795.506 219.629 798.544 214.697C810.121 195.901 803.676 178.494 776.209 154.382C768.354 147.485 761.453 141.842 760.876 141.842C760.3 141.842 759.141 151.679 758.3 163.699ZM270.502 167.669C270.502 169.924 284.443 187.4 296.092 199.752C310.62 215.154 318.258 218.071 343.837 217.988C362.474 217.927 365.198 217.472 361.898 214.964C357.569 211.678 358.871 209.093 364.857 209.093C368.308 209.093 368.51 208.071 366.507 200.687C362.745 186.811 356.197 178.35 345.027 172.946C336.019 168.586 329.972 167.725 302.515 166.9C284.907 166.369 270.502 166.716 270.502 167.669ZM962.932 169.612C944.272 174.638 937.606 181.401 932.311 200.687C930.105 208.721 930.241 209.093 935.427 209.093C941.848 209.093 942.301 210.859 936.927 214.939C930.567 219.768 974.668 219.246 984.941 214.37C992.691 210.693 1016.3 186.129 1024.44 173.269L1028.73 166.501L1001.04 166.651C985.818 166.736 968.667 168.068 962.932 169.612ZM590.523 194.661C567.688 200.193 557.073 208.84 551.057 226.8C547.414 237.683 547.865 240.476 553.264 240.476C557.043 240.476 557.496 241.111 555.47 243.552C553.423 246.018 554.31 246.906 559.96 248.035C571.957 250.434 593.141 249.589 600.704 246.412C611.082 242.05 625.495 225.368 634.732 207.028L642.725 191.159L623.081 191.346C612.274 191.449 597.625 192.942 590.523 194.661ZM664.864 208.176C675.014 227.082 686.656 240.799 697.597 246.74C705.565 251.066 740.017 251.638 744.145 247.511C746.053 245.603 746.017 244.96 744.006 244.96C742.526 244.96 741.315 243.835 741.315 242.456C741.315 241.037 743.6 240.391 746.597 240.963C751.675 241.934 751.803 241.631 749.898 233.144C743.486 204.616 726.128 194.374 679.834 191.805L655.347 190.447L664.864 208.176ZM380.358 213.563C380.358 228.506 388.006 252.833 400.606 277.978C407.84 292.412 413.306 304.674 412.753 305.225C412.199 305.779 406.45 302.596 399.976 298.15C378.107 283.138 372.245 282.528 330.784 290.955C291.751 298.886 293.236 298.157 302.807 304.66L310.857 310.13V327.873C310.857 364.13 317.89 379.732 337.844 387.737L350.092 392.651L351.509 386.616C352.287 383.296 353.045 375.421 353.19 369.115C353.497 355.818 351.758 353.004 327.876 328.203C319.133 319.119 312.987 312.098 314.22 312.598C315.453 313.1 325.284 317.88 336.068 323.221C346.852 328.563 360.219 333.446 365.774 334.071C375.325 335.147 375.879 335.591 375.951 342.204C376.137 359.537 380.414 395.561 382.831 400.163C384.298 402.956 389.387 409.919 394.138 415.639C398.891 421.358 402.778 427.301 402.778 428.845C402.778 430.387 405.892 425.817 409.697 418.688C415.412 407.979 416.595 403.234 416.506 391.422C416.364 373.041 411.051 361.319 396.442 347.16L385.087 336.158L395.418 329.227C418.649 313.645 417.647 314.477 413.241 314.463C410.952 314.457 409.544 313.21 410.064 311.65C411.954 305.983 416.954 309.213 430.446 324.824C438.04 333.612 456.751 354.291 472.023 370.779C502.456 403.631 519.141 424.611 537.839 453.535C553.672 478.028 567.276 502.666 565.789 504.154C564.294 505.65 535.819 496.719 495.82 482.211C448.375 465.001 409.757 444.902 370.83 417.159C362.508 411.225 355.697 406.982 355.697 407.724C355.697 410.835 368.505 424.043 383.432 436.323C406.042 454.925 426.554 468.402 458.827 485.86C544.782 532.361 588.122 576.78 600.06 630.612C602.84 643.15 602.526 680.384 599.616 683.292C598.749 684.157 593.2 681.335 587.285 677.02C555.9 654.121 514.941 631.681 422.956 586.994C393.978 572.916 359.676 554.431 346.729 545.917C321.357 529.232 288.438 503.816 288.438 500.911C288.438 499.929 294.744 498.064 302.45 496.77L316.462 494.417L345.839 508.801C388.317 529.6 404.383 530.496 429.852 513.493C442.86 504.807 443.425 504.08 438.578 502.287C435.726 501.233 428.967 496.291 423.557 491.305C410.703 479.46 397.669 473.721 383.473 473.661C368.061 473.594 330.206 481.296 304.228 489.781L283.026 496.708L272.183 484.598C258.474 469.29 239.875 441.542 228.757 419.811C221.374 405.381 220.049 403.841 219.417 408.948C217.71 422.73 233.933 459.98 254.198 488.806L264.09 502.877L257.093 505.316C247.867 508.532 249.618 510.012 259.346 507.221C266.742 505.1 267.323 505.43 280.497 519.21C287.947 527.002 298.583 537.165 304.132 541.792L314.22 550.205L290.68 548.757C256.413 546.648 225.06 543.368 202.422 539.526C191.491 537.67 182.054 536.643 181.453 537.244C180.261 538.436 208.012 547.222 234.631 554.079C246.21 557.063 249.351 558.504 244.719 558.708C241.02 558.872 232.866 561.228 226.598 563.945C211.538 570.472 174.097 590.883 174.097 592.564C174.097 593.293 184.37 598.814 196.925 604.835C217.473 614.69 221.338 615.792 235.599 615.871C248.955 615.945 253.1 614.985 261.962 609.776C270.679 604.654 273.69 601.009 279.557 588.48C283.449 580.168 287.454 571.759 288.458 569.793C289.902 566.964 289.27 566.41 285.436 567.139C282.772 567.646 276.051 565.996 270.502 563.476C258.568 558.056 260.59 557.874 287.317 561.961C339.369 569.923 337.458 569.212 378.049 595.653C393.499 605.716 424.301 625.499 446.496 639.613L486.852 665.275L458.827 666.798C443.414 667.636 412.138 669.629 389.326 671.231C339.14 674.753 282.77 674.583 264.716 670.857C243.255 666.43 228.548 659.958 213.184 648.185C205.25 642.103 198.759 637.994 198.759 639.05C198.759 643.744 213.695 662.841 222.809 669.799C238.875 682.063 266.09 690.243 304.977 694.491L318.153 695.933L303.856 701.057C287.962 706.753 266.863 716.318 273.865 714.653C317.926 704.171 350.477 701.131 417.351 701.25C484.469 701.371 497.654 703.382 527.71 718.081C555.091 731.47 579.972 760.318 588.805 788.918C598.912 821.635 598.973 879.161 588.94 918.312C577.36 963.502 548.049 1002.52 512.226 1020.43L499.488 1026.8L538.009 1026.49C567.715 1026.26 585.51 1027.42 615.765 1031.59L654.999 1037L686.387 1030.07C728.081 1020.87 750.209 1018.04 784.13 1017.59L812.372 1017.22L799.546 1011.06C792.491 1007.68 779.554 998.275 770.799 990.171C736.062 958.012 716.927 916.673 709.773 858.322C701.186 788.285 722.061 742.539 773.804 718.018C808.231 701.698 843.876 696.995 908.981 700.178C955.988 702.478 993.261 707.264 1022.68 714.781L1027.17 715.926L1022.68 713.104C1020.22 711.55 1009.77 707.092 999.476 703.193L980.755 696.11L996.113 694.509C1044.49 689.468 1074.57 676.674 1092.14 653.666C1103.64 638.608 1102 635.584 1088.26 646.504C1074.44 657.49 1058.63 664.919 1038.13 670.066C1026.4 673.014 1022.99 673.197 1021.61 670.956C1020.21 668.701 1019.67 668.716 1018.89 671.036C1017.34 675.695 982.923 676.201 931.883 672.321C906.604 670.398 870.015 668.133 850.575 667.286C817.426 665.842 815.545 665.526 820.309 662.186C842.246 646.813 944.496 581.282 954.302 576.31C962.918 571.941 976.41 568.361 999.086 564.427C1038.44 557.598 1043.89 557.41 1030.85 563.328C1025.47 565.767 1019.1 567.762 1016.68 567.762C1011.83 567.762 1012.15 570.085 1019.33 586.816C1028.52 608.236 1050.49 619.402 1074.71 614.959C1086.13 612.865 1124.69 596.572 1124.69 593.846C1124.69 591.914 1094.85 573.978 1079.01 566.388C1067.8 561.015 1059.87 558.753 1051.89 558.65C1042.05 558.522 1043.82 557.838 1065.83 553.267C1092 547.831 1123.56 538.981 1122.07 537.493C1121.6 537.022 1107.11 538.542 1089.88 540.871C1059.1 545.029 990.38 550.873 989.131 549.439C988.779 549.037 998.895 538.831 1011.61 526.762L1034.72 504.813L1042.99 508.268C1054.4 513.034 1055.78 512.422 1045.66 507.084C1041.04 504.643 1037.26 502.175 1037.26 501.599C1037.26 501.023 1040.76 495.954 1045.05 490.339C1055.79 476.275 1067.43 454.997 1073.85 437.691C1079.79 421.681 1083.17 404.119 1080.31 404.119C1079.3 404.119 1075 411.418 1070.76 420.34C1060.17 442.593 1039.79 472.616 1026.78 485.154L1015.96 495.576L998.043 490.168C972.283 482.39 929.089 473.607 916.713 473.634C903.755 473.661 887.79 480.901 872.787 493.562C866.796 498.617 860.35 502.753 858.467 502.753C853.53 502.753 870.601 515.964 882.38 521.261C890.265 524.807 895.448 525.493 907.734 524.614C921.168 523.653 927.13 521.539 953.594 508.358L984.01 493.206L996.622 496.109C1003.56 497.707 1010.03 499.433 1011 499.947C1013.64 501.346 983.259 525.648 956.544 543.5C942.653 552.783 902.679 574.247 859.019 595.866C786.054 631.998 744.781 654.89 717.467 674.377C709.795 679.851 702.52 684.33 701.296 684.33C698.222 684.33 695.61 657.293 697.301 642.926C703.507 590.118 740.86 543.922 809.597 504.042C820.748 497.573 841.98 485.463 856.777 477.133C886.021 460.668 918.233 437.305 934.03 421.098C939.528 415.458 943.411 410.844 942.66 410.844C941.909 410.844 929.34 418.509 914.729 427.874C885.617 446.536 859.514 460.287 830.021 472.493C800.194 484.838 732.347 507.264 732.347 504.778C732.347 501.552 751.182 469.063 766.659 445.59C783.666 419.8 798.66 401.196 825.71 372.326C837.628 359.604 855.44 339.868 865.296 328.463C875.152 317.059 884.521 307.727 886.117 307.727C890.485 307.727 892.525 312.45 889.077 314.58C887.413 315.609 886.528 316.839 887.108 317.315C897.966 326.196 910.887 334.627 913.644 334.627C915.765 334.627 911.635 340.238 903.331 348.638C886.913 365.244 882.559 374.558 882.559 393.07C882.559 403.915 883.862 409.141 888.725 417.798C894.847 428.697 898.253 431.544 898.253 425.763C898.253 424.104 900.376 420.827 902.97 418.48C905.564 416.132 910.322 409.715 913.543 404.218C918.55 395.677 919.74 389.974 921.72 365.047L924.036 335.871L934.124 334.168C944.742 332.377 968.072 321.655 990.79 308.124L1004.33 300.058L979.876 293.867C934.174 282.293 922.222 282.878 901.342 297.72C895.336 301.991 888.583 305.485 886.337 305.485C882.544 305.485 882.595 305.006 887.043 298.758C894.641 288.09 911.052 251.485 914.909 236.607C918.639 222.213 919.684 204.504 916.592 208.084C915.581 209.254 911.956 216.977 908.537 225.242C892.964 262.891 864.659 303.542 833.821 332.549C817.262 348.124 790.518 369.553 776.994 378.08L771.196 381.736L772.16 358.743C772.784 343.876 771.86 328.03 769.551 313.916C765.56 289.536 764.867 256.648 768.105 245.357C771.196 234.581 766.123 237.098 759.812 249.47C754.22 260.434 753.182 281.968 756.868 310.558C758.978 326.918 756.922 349.646 751.373 371.306C746.349 390.916 733.121 417.574 706.982 460.776C680.011 505.349 669.848 524.901 658.977 553.131C654.69 564.261 650.883 573.685 650.518 574.073C650.15 574.46 648.079 569.416 645.911 562.864C638.743 541.198 618.523 501.769 593.13 459.946C563.198 410.645 554.582 393.191 548.425 369.373C541.919 344.206 540.735 325.378 543.872 296.971C545.932 278.33 545.964 270.107 544.011 262.853C541.607 253.924 531.086 234.626 529.559 236.343C529.183 236.767 530.469 244.85 532.42 254.305C535.808 270.73 535.731 273.183 530.716 309.397C526.396 340.581 525.84 350.344 527.582 364.5C528.745 373.962 529.308 381.702 528.833 381.702C528.357 381.702 518.726 375.399 507.431 367.692C478.084 347.674 439.943 310.007 422.025 283.353C408.968 263.927 384.842 217.356 384.842 211.574C384.842 210.355 383.833 208.734 382.6 207.972C381.289 207.163 380.358 209.483 380.358 213.563ZM295.164 229.264L271.623 235.444L298.226 248.517C320.245 259.34 327.199 261.721 338.582 262.333C350.641 262.983 353.713 262.241 363.544 256.296C372.207 251.059 373.608 249.51 369.709 249.481C363.873 249.436 363.062 246.078 368.193 243.207C371.142 241.557 370.364 240.039 363.461 233.98C358.916 229.99 352.724 225.785 349.697 224.635C340.317 221.068 319.715 222.816 295.164 229.264ZM946.455 226.737C942.756 229.033 937.31 233.541 934.355 236.751C930.044 241.434 929.513 243.227 931.672 245.827C933.838 248.437 933.575 249.221 930.32 249.847C924.056 251.055 948.352 262.896 957.064 262.88C961.093 262.873 968.427 261.752 973.359 260.387C985.56 257.009 1023.8 239.001 1023.8 236.632C1023.8 233.695 976.567 222.543 964.174 222.552C957.365 222.556 950.621 224.148 946.455 226.737ZM443.732 264.207C464.993 284.891 473.602 289.809 488.462 289.762C502.44 289.717 508.099 287.787 506.496 283.609C505.458 280.903 506.258 280.396 510.014 281.378C512.688 282.078 514.877 282.228 514.877 281.712C514.877 277.502 504.135 259.56 499.057 255.285C491.179 248.659 471.248 244.937 444.071 245.023L424.077 245.085L443.732 264.207ZM820.596 247.206C814.262 248.134 806.034 250.69 802.312 252.889C792.593 258.63 778.738 284.913 787.13 281.694C789.352 280.84 790.639 281.58 790.639 283.71C790.639 288.271 795.472 289.793 809.969 289.793C826.526 289.793 835.231 284.817 856.725 263.061L874.607 244.96L853.362 245.24C841.675 245.392 826.932 246.278 820.596 247.206ZM1032.23 287.323C1012.95 313.596 1007.26 327.44 1008.74 344.419C1010.64 366.053 1014.8 382.261 1017.85 379.86C1019.27 378.735 1025.81 376.06 1032.37 373.922C1054.28 366.771 1064.12 351.803 1064.15 325.571C1064.17 306.017 1053.82 272.353 1047.2 270.396C1046.04 270.055 1039.31 277.673 1032.23 287.323ZM248.919 277.585C243.746 285.476 236.911 315.261 236.89 329.996C236.857 352.635 248.67 367.95 271.623 375.036C276.555 376.558 281.712 378.687 283.082 379.768C284.83 381.149 286.781 374.679 289.633 358.042C293.664 334.524 293.659 334.269 289.048 323.354C284.265 312.035 257.205 271.963 254.299 271.898C253.403 271.876 250.981 274.436 248.919 277.585ZM593.948 277.446C566.457 282.43 553.351 290.975 549.468 306.445C548.322 311.002 549.197 313.414 553.29 316.999C557.75 320.906 560.64 321.464 571.43 320.509C588.456 319 597.637 312.964 613.756 292.683C621.027 283.535 626.975 275.61 626.975 275.075C626.975 273.281 610.322 274.478 593.948 277.446ZM679.762 284.75C702.883 313.755 713.735 321.197 732.818 321.143C739.342 321.123 746.192 320.13 748.041 318.935C751.03 317.003 751.03 316.75 748.041 316.658C745.313 316.57 745.42 315.988 748.602 313.573C750.761 311.935 752.525 309.289 752.525 307.691C752.525 302.004 740.533 289.195 731.469 285.205C724.337 282.064 682.365 274.102 672.937 274.102C672.023 274.102 675.094 278.894 679.762 284.75ZM129.258 311.495C129.258 318.007 137.434 344.827 143.324 357.64C150.559 373.375 158.809 382.689 170.226 388.013C181.2 393.131 212.478 396.764 208.128 392.415C206.675 390.963 205.485 388.966 205.485 387.979C205.485 384.565 211.969 386.204 214.886 390.353C217.405 393.935 217.91 391.694 218.488 374.35C219.087 356.356 218.524 352.886 213.276 342.159C208.98 333.381 204.817 328.628 197.84 324.54C187.392 318.418 162.385 311.426 142.149 308.969C130.592 307.566 129.258 307.828 129.258 311.495ZM1145.71 311.242C1135.7 312.925 1121.91 316.393 1115.07 318.951C1088.78 328.788 1081.2 340.745 1080.92 372.861C1080.73 393.514 1080.87 394.137 1084.77 390.234C1088.67 386.334 1095.55 384.666 1095.55 387.621C1095.55 388.41 1093.78 390.385 1091.62 392.012C1088.29 394.523 1090.08 394.783 1103.39 393.738C1123.97 392.122 1132.43 389.371 1141.61 381.308C1154.62 369.893 1163.14 352.02 1170.57 320.617C1174.13 305.544 1175.83 306.182 1145.71 311.242ZM967.501 332.069C945.525 352.646 942.028 358.932 944.007 374.323C944.765 380.232 945.48 387.372 945.592 390.192C945.731 393.655 946.632 394.691 948.37 393.386C949.782 392.324 955.201 390.237 960.409 388.748C966.492 387.009 971.879 383.42 975.473 378.708C982.582 369.387 988.329 344.845 987.472 327.447L986.811 313.99L967.501 332.069ZM604.943 339.279C579.075 342.634 564.819 349.494 558.561 361.592C554.104 370.212 554.364 372.736 559.716 372.736C564.653 372.736 565.839 376.296 561.397 377.784C559.857 378.302 563.902 379.432 570.388 380.295C590.106 382.918 597.621 379.452 620.839 357.033L641.548 337.035L630.338 337.236C624.172 337.346 612.745 338.265 604.943 339.279ZM664.546 342.814C673.484 355.327 697.653 376.524 706.19 379.34C716.015 382.579 742.169 380.579 736.63 377.013C734.137 375.408 734.571 374.675 738.679 373.552C742.959 372.382 743.647 371.079 742.524 366.266C741.773 363.043 737.8 357.239 733.695 353.37C725.288 345.443 707.71 340.615 677.67 337.981L659.986 336.427L664.546 342.814ZM650.545 397.955C639.048 411.369 629.448 432.64 627.807 448.345C625.946 466.147 631.73 479.612 645.276 489.019C650.623 492.733 657.687 497.851 660.974 500.395L666.951 505.022L664.44 498.369C661.77 491.296 663.967 486.107 667.33 491.545C669.832 495.591 669.792 495.638 678.511 478.252C688.968 457.397 687.782 444.604 672.42 412.526C666.073 399.273 660.391 388.428 659.795 388.428C659.199 388.428 655.038 392.716 650.545 397.955ZM314.22 409.376C296.307 415.308 261.478 431.977 262.211 434.27C263.657 438.805 295.374 459.917 307.625 464.501C320.783 469.424 338.308 470.514 347.588 466.987C350.686 465.808 357.15 461.296 361.952 456.958C366.754 452.62 373.112 448.007 376.081 446.709C380.903 444.602 380.661 444.479 373.83 445.548C366.342 446.718 366.265 446.651 370.178 442.329C374.041 438.061 373.919 437.561 366.507 427.245C362.293 421.376 355.71 414.745 351.881 412.508C342.673 407.132 325.354 405.691 314.22 409.376ZM953.181 410.436C942.821 415.355 939.093 419.309 931.656 433.261C928.697 438.809 925.269 444.091 924.036 444.996C922.778 445.92 923.563 446.657 925.822 446.678C928.04 446.696 934.427 451.219 940.019 456.732C955.818 472.305 978.24 473.511 1003.34 460.132C1015.98 453.396 1039.09 435.978 1039.37 432.983C1039.44 432.214 1027.64 426.299 1013.15 419.838C982.103 405.993 967.393 403.687 953.181 410.436ZM142.006 436.063C145.799 440.071 151.671 447.888 155.052 453.436C163.5 467.297 169.304 473.316 179.052 478.312C189.334 483.585 196.035 483.65 213.7 478.646L227.517 474.732L216.621 459.821C208.117 448.18 203.075 443.656 193.641 439.193C181.265 433.34 159.695 428.825 143.952 428.796L135.105 428.778L142.006 436.063ZM1131.69 431.304C1118.25 433.537 1101.31 440.392 1094.8 446.236C1092.44 448.348 1086.58 455.851 1081.78 462.91L1073.03 475.743L1079.24 477.144C1082.66 477.916 1089.18 479.473 1093.73 480.61C1104.53 483.309 1118.66 480.928 1127.62 474.903C1131.56 472.253 1138.96 463.147 1144.06 454.671C1149.16 446.196 1155.59 437.561 1158.35 435.485C1162.81 432.118 1162.94 431.551 1159.53 430.244C1154.8 428.428 1147.28 428.715 1131.69 431.304ZM92.2656 482.35C79.9348 487.08 66.3574 492.401 62.0954 494.174L54.3449 497.398L71.0633 511.238C103.937 538.45 127.801 546.307 147.947 536.556C159.549 530.94 180.27 508.409 175.79 506.282C171.627 504.305 179.05 506.091 207.44 513.899C221.461 517.755 234.577 520.595 236.586 520.207C241.621 519.237 219.118 508.873 190.524 498.996C177.507 494.502 164.197 488.604 160.948 485.894C142.553 470.552 125.341 469.664 92.2656 482.35ZM1146.31 482.639C1137.85 487.781 1119.94 495.91 1106.5 500.7C1082.1 509.404 1058.44 520.203 1060.11 521.873C1060.6 522.359 1070.03 520.247 1081.07 517.179C1092.12 514.11 1105.69 510.579 1111.24 509.335C1116.79 508.091 1123.25 506.488 1125.59 505.775C1128.93 504.76 1129.53 505.313 1128.38 508.319C1126.06 514.361 1138.95 528.62 1152.89 535.442C1174.65 546.085 1192.06 540.716 1228.04 512.267L1246.51 497.663L1219.79 486.308C1198.15 477.115 1190.09 474.797 1177.38 474.123C1162.27 473.32 1161.11 473.641 1146.31 482.639ZM134.684 572.586C135.309 575.48 136.876 585.167 138.165 594.111C142.517 624.27 151.478 637.552 169.535 640.603C174.51 641.444 178.682 643.305 178.806 644.737C179.391 651.57 182.644 634.667 182.834 623.804C183.119 607.487 179.137 601.414 156.379 583.454C134.762 566.393 133.175 565.597 134.684 572.586ZM1146.8 580.715C1120.15 601.887 1117.96 605.306 1118 625.658C1118.02 635.118 1119.01 644.372 1120.21 646.221C1122.1 649.149 1122.38 649.113 1122.42 645.948C1122.44 643.491 1125.18 641.872 1130.86 640.958C1149.14 638.016 1156.77 625.981 1161.84 592.1C1163.7 579.636 1164.81 569.015 1164.29 568.5C1163.77 567.984 1155.9 573.481 1146.8 580.715ZM317.583 599.289C290.465 614.219 279.452 630.52 279.504 655.658C279.524 664.648 280.311 670.785 281.254 669.302C282.198 667.815 284.987 666.753 287.451 666.939C289.915 667.125 296.708 664.964 302.546 662.137C316.059 655.598 322.794 644.354 327.524 620.442C329.475 610.578 331.587 600.24 332.217 597.464C333.692 590.968 332.412 591.127 317.583 599.289ZM967.781 596.344C967.839 605.03 979.219 645.466 983.078 650.704C988.32 657.817 1004.54 666.957 1011.93 666.957C1019.08 666.957 1021.5 663.135 1021.48 651.825C1021.45 633.784 1011.46 620.123 984.757 601.614C969.965 591.36 967.743 590.67 967.781 596.344ZM76.7377 632.161L50 638.108L66.4583 653.522C99.2067 684.195 123.108 688.241 143.69 666.596C147.31 662.787 151.7 659.671 153.44 659.671C157.054 659.671 135.448 633.842 128.908 630.341C120.129 625.645 103.431 626.227 76.7377 632.161ZM1172.89 630.22C1165.48 633.587 1156.29 642.816 1144.58 658.642C1143.54 660.043 1144.69 661.115 1147.44 661.321C1149.97 661.512 1155.28 665.428 1159.25 670.023C1165.82 677.622 1167.71 678.47 1180.02 679.36C1190.18 680.095 1196.01 679.252 1203.43 675.973C1212.73 671.855 1248 643.089 1248 639.615C1248 637.517 1197.33 625.961 1188.59 626.064C1184.89 626.109 1177.83 627.978 1172.89 630.22ZM151.913 686.132C147.766 688.356 134.881 698.192 123.283 707.988L102.195 725.801L118.474 726.469C140.002 727.354 171.154 723.413 177.978 718.941C184.166 714.888 188.98 704.769 191.136 691.274L192.607 682.088H176.03C164.336 682.088 157.233 683.278 151.913 686.132ZM1107.68 687.954C1112.42 707.551 1114.28 712.189 1119.27 716.809C1126.32 723.337 1132.94 724.579 1168.41 726.021L1197.56 727.206L1182.98 713.597C1174.97 706.114 1163.09 696.285 1156.59 691.756C1145.69 684.155 1143.29 683.444 1125.45 682.507L1106.12 681.492L1107.68 687.954ZM216.437 712.082C211.98 713.673 201.198 719.089 192.479 724.115C183.763 729.141 174.371 733.969 171.613 734.844L166.596 736.438L172.028 739.486C183.949 746.178 206.283 751.58 221.975 751.564C239.787 751.549 244.825 749.226 256.736 735.541L263.866 727.348L254.754 719.549C242.291 708.883 231.353 706.751 216.437 712.082ZM850.744 712.127C852.362 715.402 851.275 718.616 846.035 726.047C841.06 733.106 838.951 739.02 838.206 747.991C836.637 766.898 842.78 777.279 867.668 797.788C899.083 823.673 896.984 823.971 895.294 793.883C893.018 753.396 890.023 746.763 867.426 732.152C860.494 727.67 855.656 722.905 855.656 720.555C855.656 718.363 854.077 714.613 852.147 712.218C848.824 708.098 848.75 708.094 850.744 712.127ZM1053.83 713.442C1048.76 716.009 1042.47 720.394 1039.84 723.189L1035.07 728.269L1046.1 739.132C1054.01 746.924 1059.55 750.397 1065.69 751.414C1078.57 753.546 1099.81 750.305 1116.35 743.683L1131.12 737.771L1117.26 730.064C1079.3 708.959 1068.34 706.087 1053.83 713.442ZM445.375 719.681C445.375 722.869 441.748 726.298 433.394 731.013C410.869 743.723 406.989 752.38 403.35 798.03L401.523 820.94L407.195 817.257C419.68 809.146 442.999 789.438 450.559 780.605C465.86 762.732 465.488 741.02 449.525 720.454C445.602 715.399 445.375 715.359 445.375 719.681ZM369.063 722.999C361.003 727.063 355.95 732.613 343.045 751.58C329.748 771.123 327.656 775.376 330.715 776.642C334.127 778.052 334.127 778.178 330.708 778.323C324.238 778.599 313.705 793.085 311.082 805.313C309.725 811.637 308.66 826.091 308.714 837.434L308.813 858.06L328.609 837.383C352.769 812.146 356.177 805.62 355.464 785.972C354.869 769.556 354.639 769.852 372.686 763.748C393.537 756.696 398.175 750.856 401.482 727.482L402.832 717.955H390.949C383.085 717.955 375.684 719.661 369.063 722.999ZM899.789 728.316C901.95 750.829 907.382 757.252 930.883 765.071L945.332 769.879L944.126 784.827C942.527 804.607 945.803 811.016 970.556 836.549L990.174 856.785L990.053 831.642C989.905 801.366 986.14 789.157 974.44 781.022C970.146 778.036 968.449 776.232 970.666 777.01C974.48 778.346 974.5 778.09 971.016 772.287C956.746 748.516 940.967 727.56 934.582 723.9C930.481 721.548 920.861 719.156 912.967 718.522L898.74 717.381L899.789 728.316ZM281.107 753.261C279.593 756.653 273.367 764.055 267.271 769.711C256.532 779.677 256.16 780.446 255.268 794.446C254.537 805.907 255.813 813.959 261.438 833.422C265.337 846.914 268.762 858.188 269.049 858.475C269.336 858.764 275.522 848.306 282.795 835.237C303.421 798.171 304.853 785.58 290.733 765.55C286.2 759.119 284.25 754.183 285.135 751.387C287.202 744.878 284.232 746.261 281.107 753.261ZM1015.7 750.782C1016.76 754.106 1015.59 757.5 1011.86 761.973C1003.3 772.228 999.142 782.047 999.142 792.029C999.142 801.076 1005.23 815.082 1023.33 847.67L1030.01 859.696L1032.37 852.153C1049.03 798.812 1048.4 780.484 1029.41 766.001C1025.09 762.708 1021.56 758.24 1021.56 756.073C1021.56 753.903 1019.9 750.753 1017.88 749.069C1014.61 746.362 1014.36 746.559 1015.7 750.782ZM244.372 771.879C243.069 773.181 237.231 774.712 231.4 775.284C217.953 776.599 209.415 781.018 202.487 790.247C197.129 797.382 177.812 841.225 179.348 842.763C181.169 844.581 226.905 822.964 232.424 817.676C239.159 811.225 243.659 798.967 245.784 781.282C246.562 774.811 247.094 769.514 246.968 769.514C246.84 769.514 245.672 770.578 244.372 771.879ZM1052.23 779.653C1053.87 796.414 1059.07 810.689 1065.93 817.257C1071.13 822.238 1115.19 843.489 1120.31 843.489C1122.82 843.489 1102.74 798.698 1096.59 790.565C1089.85 781.661 1078.39 776.239 1066.31 776.239C1059.89 776.239 1055.89 774.981 1053.97 772.367C1051.59 769.112 1051.32 770.276 1052.23 779.653Z"/>
</mask>
<path d="M645.722 42.7735C625.224 66.5735 611.281 94.8455 611.281 112.611C611.281 126.092 621.094 142.721 633.896 150.935C640.03 154.871 646.11 160.07 647.404 162.488C648.7 164.907 650.318 166.326 651 165.642C651.684 164.959 650.594 161.881 648.576 158.803C643.451 150.982 643.9 146.958 649.35 151.89C653.657 155.786 654.1 155.651 664.203 147.375C683.277 131.744 687.566 111.113 677.731 82.2697C670.368 60.6801 658.239 32 656.472 32C655.663 32.0022 650.825 36.8488 645.722 42.7735ZM713.827 105.323C692.344 139.206 689.649 151.045 699.655 167.572C703.783 174.392 704.542 177.557 702.883 181.023C700.841 185.286 700.906 185.315 703.977 181.507C705.773 179.281 711.571 175.246 716.86 172.54C732.509 164.539 735.789 158.137 735.264 136.624C735.02 126.547 732.993 110.813 730.765 101.654L726.709 85.0046L713.827 105.323ZM566.469 109.898C556.904 149.052 559.693 162.605 579.279 172.105C584.362 174.571 589.637 178.606 591.002 181.072C592.433 183.654 593.052 184.004 592.464 181.897C591.904 179.884 593.892 173.408 596.879 167.505C602.728 155.954 603.708 145.862 599.952 135.824C596.509 126.619 574.957 88.0421 573.257 88.0421C572.459 88.0421 569.406 97.8786 566.469 109.898ZM472.494 124.068C453.792 156.505 452.817 169.594 467.19 195.293C475.18 209.582 475.431 209.795 477.068 203.679C477.992 200.227 480.2 195.746 481.978 193.722C489.125 185.575 495.246 169.861 495.051 160.155C494.887 152.058 484.854 111.12 482.431 108.663C482.065 108.293 477.595 115.225 472.494 124.068ZM813.39 116.216C805.709 145.62 804.093 153.461 804.113 161.22C804.138 171.186 812.448 190.31 819.466 196.551C822.344 199.111 824.313 203.601 824.38 207.759C824.479 213.818 825.663 212.429 833.736 196.764C848.459 168.205 846.914 157.554 822.309 118.029L815.693 107.401L813.39 116.216ZM417.873 134.221C396.653 176.613 395.626 194.984 413.409 214C417.409 218.275 418.727 221.7 417.945 225.787C417.053 230.458 417.423 231.068 419.9 229.012C421.581 227.618 422.956 224.643 422.956 222.402C422.956 217.271 426.85 214.621 427.83 219.086C429.047 224.623 442.627 214.392 447.974 203.91C455.518 189.124 454.263 175.829 443.302 154.429C438.177 144.425 431.596 133.313 428.677 129.737L423.373 123.236L417.873 134.221ZM872.769 129.374C862.238 145.44 855.198 159.036 851.091 171.224C845.051 189.151 847.688 199.716 861.518 213.016C871.652 222.758 876.703 225.175 874.403 219.18C873.692 217.331 874.228 215.818 875.593 215.818C876.959 215.818 878.075 218.217 878.075 221.149C878.075 224.079 879.842 227.863 881.999 229.555C885.577 232.359 885.644 232.276 882.759 228.605C879.981 225.067 880.185 223.841 884.431 218.517C903.883 194.132 904.008 177.772 885.03 140.06L876.663 123.431L872.769 129.374ZM524.026 154.338C495.457 180.733 490.627 194.565 502.756 215.258C505.953 220.714 508.104 226.966 507.532 229.149C505.664 236.293 532.2 216.029 536.487 207.037C540.995 197.58 542.885 170.554 540.251 153.217L538.404 141.053L524.026 154.338ZM758.3 163.699C755.713 200.702 760.504 212.648 783.352 226.139C791.975 231.23 792.887 231.38 792.95 227.715C792.988 225.486 795.506 219.629 798.544 214.697C810.121 195.901 803.676 178.494 776.209 154.382C768.354 147.485 761.453 141.842 760.876 141.842C760.3 141.842 759.141 151.679 758.3 163.699ZM270.502 167.669C270.502 169.924 284.443 187.4 296.092 199.752C310.62 215.154 318.258 218.071 343.837 217.988C362.474 217.927 365.198 217.472 361.898 214.964C357.569 211.678 358.871 209.093 364.857 209.093C368.308 209.093 368.51 208.071 366.507 200.687C362.745 186.811 356.197 178.35 345.027 172.946C336.019 168.586 329.972 167.725 302.515 166.9C284.907 166.369 270.502 166.716 270.502 167.669ZM962.932 169.612C944.272 174.638 937.606 181.401 932.311 200.687C930.105 208.721 930.241 209.093 935.427 209.093C941.848 209.093 942.301 210.859 936.927 214.939C930.567 219.768 974.668 219.246 984.941 214.37C992.691 210.693 1016.3 186.129 1024.44 173.269L1028.73 166.501L1001.04 166.651C985.818 166.736 968.667 168.068 962.932 169.612ZM590.523 194.661C567.688 200.193 557.073 208.84 551.057 226.8C547.414 237.683 547.865 240.476 553.264 240.476C557.043 240.476 557.496 241.111 555.47 243.552C553.423 246.018 554.31 246.906 559.96 248.035C571.957 250.434 593.141 249.589 600.704 246.412C611.082 242.05 625.495 225.368 634.732 207.028L642.725 191.159L623.081 191.346C612.274 191.449 597.625 192.942 590.523 194.661ZM664.864 208.176C675.014 227.082 686.656 240.799 697.597 246.74C705.565 251.066 740.017 251.638 744.145 247.511C746.053 245.603 746.017 244.96 744.006 244.96C742.526 244.96 741.315 243.835 741.315 242.456C741.315 241.037 743.6 240.391 746.597 240.963C751.675 241.934 751.803 241.631 749.898 233.144C743.486 204.616 726.128 194.374 679.834 191.805L655.347 190.447L664.864 208.176ZM380.358 213.563C380.358 228.506 388.006 252.833 400.606 277.978C407.84 292.412 413.306 304.674 412.753 305.225C412.199 305.779 406.45 302.596 399.976 298.15C378.107 283.138 372.245 282.528 330.784 290.955C291.751 298.886 293.236 298.157 302.807 304.66L310.857 310.13V327.873C310.857 364.13 317.89 379.732 337.844 387.737L350.092 392.651L351.509 386.616C352.287 383.296 353.045 375.421 353.19 369.115C353.497 355.818 351.758 353.004 327.876 328.203C319.133 319.119 312.987 312.098 314.22 312.598C315.453 313.1 325.284 317.88 336.068 323.221C346.852 328.563 360.219 333.446 365.774 334.071C375.325 335.147 375.879 335.591 375.951 342.204C376.137 359.537 380.414 395.561 382.831 400.163C384.298 402.956 389.387 409.919 394.138 415.639C398.891 421.358 402.778 427.301 402.778 428.845C402.778 430.387 405.892 425.817 409.697 418.688C415.412 407.979 416.595 403.234 416.506 391.422C416.364 373.041 411.051 361.319 396.442 347.16L385.087 336.158L395.418 329.227C418.649 313.645 417.647 314.477 413.241 314.463C410.952 314.457 409.544 313.21 410.064 311.65C411.954 305.983 416.954 309.213 430.446 324.824C438.04 333.612 456.751 354.291 472.023 370.779C502.456 403.631 519.141 424.611 537.839 453.535C553.672 478.028 567.276 502.666 565.789 504.154C564.294 505.65 535.819 496.719 495.82 482.211C448.375 465.001 409.757 444.902 370.83 417.159C362.508 411.225 355.697 406.982 355.697 407.724C355.697 410.835 368.505 424.043 383.432 436.323C406.042 454.925 426.554 468.402 458.827 485.86C544.782 532.361 588.122 576.78 600.06 630.612C602.84 643.15 602.526 680.384 599.616 683.292C598.749 684.157 593.2 681.335 587.285 677.02C555.9 654.121 514.941 631.681 422.956 586.994C393.978 572.916 359.676 554.431 346.729 545.917C321.357 529.232 288.438 503.816 288.438 500.911C288.438 499.929 294.744 498.064 302.45 496.77L316.462 494.417L345.839 508.801C388.317 529.6 404.383 530.496 429.852 513.493C442.86 504.807 443.425 504.08 438.578 502.287C435.726 501.233 428.967 496.291 423.557 491.305C410.703 479.46 397.669 473.721 383.473 473.661C368.061 473.594 330.206 481.296 304.228 489.781L283.026 496.708L272.183 484.598C258.474 469.29 239.875 441.542 228.757 419.811C221.374 405.381 220.049 403.841 219.417 408.948C217.71 422.73 233.933 459.98 254.198 488.806L264.09 502.877L257.093 505.316C247.867 508.532 249.618 510.012 259.346 507.221C266.742 505.1 267.323 505.43 280.497 519.21C287.947 527.002 298.583 537.165 304.132 541.792L314.22 550.205L290.68 548.757C256.413 546.648 225.06 543.368 202.422 539.526C191.491 537.67 182.054 536.643 181.453 537.244C180.261 538.436 208.012 547.222 234.631 554.079C246.21 557.063 249.351 558.504 244.719 558.708C241.02 558.872 232.866 561.228 226.598 563.945C211.538 570.472 174.097 590.883 174.097 592.564C174.097 593.293 184.37 598.814 196.925 604.835C217.473 614.69 221.338 615.792 235.599 615.871C248.955 615.945 253.1 614.985 261.962 609.776C270.679 604.654 273.69 601.009 279.557 588.48C283.449 580.168 287.454 571.759 288.458 569.793C289.902 566.964 289.27 566.41 285.436 567.139C282.772 567.646 276.051 565.996 270.502 563.476C258.568 558.056 260.59 557.874 287.317 561.961C339.369 569.923 337.458 569.212 378.049 595.653C393.499 605.716 424.301 625.499 446.496 639.613L486.852 665.275L458.827 666.798C443.414 667.636 412.138 669.629 389.326 671.231C339.14 674.753 282.77 674.583 264.716 670.857C243.255 666.43 228.548 659.958 213.184 648.185C205.25 642.103 198.759 637.994 198.759 639.05C198.759 643.744 213.695 662.841 222.809 669.799C238.875 682.063 266.09 690.243 304.977 694.491L318.153 695.933L303.856 701.057C287.962 706.753 266.863 716.318 273.865 714.653C317.926 704.171 350.477 701.131 417.351 701.25C484.469 701.371 497.654 703.382 527.71 718.081C555.091 731.47 579.972 760.318 588.805 788.918C598.912 821.635 598.973 879.161 588.94 918.312C577.36 963.502 548.049 1002.52 512.226 1020.43L499.488 1026.8L538.009 1026.49C567.715 1026.26 585.51 1027.42 615.765 1031.59L654.999 1037L686.387 1030.07C728.081 1020.87 750.209 1018.04 784.13 1017.59L812.372 1017.22L799.546 1011.06C792.491 1007.68 779.554 998.275 770.799 990.171C736.062 958.012 716.927 916.673 709.773 858.322C701.186 788.285 722.061 742.539 773.804 718.018C808.231 701.698 843.876 696.995 908.981 700.178C955.988 702.478 993.261 707.264 1022.68 714.781L1027.17 715.926L1022.68 713.104C1020.22 711.55 1009.77 707.092 999.476 703.193L980.755 696.11L996.113 694.509C1044.49 689.468 1074.57 676.674 1092.14 653.666C1103.64 638.608 1102 635.584 1088.26 646.504C1074.44 657.49 1058.63 664.919 1038.13 670.066C1026.4 673.014 1022.99 673.197 1021.61 670.956C1020.21 668.701 1019.67 668.716 1018.89 671.036C1017.34 675.695 982.923 676.201 931.883 672.321C906.604 670.398 870.015 668.133 850.575 667.286C817.426 665.842 815.545 665.526 820.309 662.186C842.246 646.813 944.496 581.282 954.302 576.31C962.918 571.941 976.41 568.361 999.086 564.427C1038.44 557.598 1043.89 557.41 1030.85 563.328C1025.47 565.767 1019.1 567.762 1016.68 567.762C1011.83 567.762 1012.15 570.085 1019.33 586.816C1028.52 608.236 1050.49 619.402 1074.71 614.959C1086.13 612.865 1124.69 596.572 1124.69 593.846C1124.69 591.914 1094.85 573.978 1079.01 566.388C1067.8 561.015 1059.87 558.753 1051.89 558.65C1042.05 558.522 1043.82 557.838 1065.83 553.267C1092 547.831 1123.56 538.981 1122.07 537.493C1121.6 537.022 1107.11 538.542 1089.88 540.871C1059.1 545.029 990.38 550.873 989.131 549.439C988.779 549.037 998.895 538.831 1011.61 526.762L1034.72 504.813L1042.99 508.268C1054.4 513.034 1055.78 512.422 1045.66 507.084C1041.04 504.643 1037.26 502.175 1037.26 501.599C1037.26 501.023 1040.76 495.954 1045.05 490.339C1055.79 476.275 1067.43 454.997 1073.85 437.691C1079.79 421.681 1083.17 404.119 1080.31 404.119C1079.3 404.119 1075 411.418 1070.76 420.34C1060.17 442.593 1039.79 472.616 1026.78 485.154L1015.96 495.576L998.043 490.168C972.283 482.39 929.089 473.607 916.713 473.634C903.755 473.661 887.79 480.901 872.787 493.562C866.796 498.617 860.35 502.753 858.467 502.753C853.53 502.753 870.601 515.964 882.38 521.261C890.265 524.807 895.448 525.493 907.734 524.614C921.168 523.653 927.13 521.539 953.594 508.358L984.01 493.206L996.622 496.109C1003.56 497.707 1010.03 499.433 1011 499.947C1013.64 501.346 983.259 525.648 956.544 543.5C942.653 552.783 902.679 574.247 859.019 595.866C786.054 631.998 744.781 654.89 717.467 674.377C709.795 679.851 702.52 684.33 701.296 684.33C698.222 684.33 695.61 657.293 697.301 642.926C703.507 590.118 740.86 543.922 809.597 504.042C820.748 497.573 841.98 485.463 856.777 477.133C886.021 460.668 918.233 437.305 934.03 421.098C939.528 415.458 943.411 410.844 942.66 410.844C941.909 410.844 929.34 418.509 914.729 427.874C885.617 446.536 859.514 460.287 830.021 472.493C800.194 484.838 732.347 507.264 732.347 504.778C732.347 501.552 751.182 469.063 766.659 445.59C783.666 419.8 798.66 401.196 825.71 372.326C837.628 359.604 855.44 339.868 865.296 328.463C875.152 317.059 884.521 307.727 886.117 307.727C890.485 307.727 892.525 312.45 889.077 314.58C887.413 315.609 886.528 316.839 887.108 317.315C897.966 326.196 910.887 334.627 913.644 334.627C915.765 334.627 911.635 340.238 903.331 348.638C886.913 365.244 882.559 374.558 882.559 393.07C882.559 403.915 883.862 409.141 888.725 417.798C894.847 428.697 898.253 431.544 898.253 425.763C898.253 424.104 900.376 420.827 902.97 418.48C905.564 416.132 910.322 409.715 913.543 404.218C918.55 395.677 919.74 389.974 921.72 365.047L924.036 335.871L934.124 334.168C944.742 332.377 968.072 321.655 990.79 308.124L1004.33 300.058L979.876 293.867C934.174 282.293 922.222 282.878 901.342 297.72C895.336 301.991 888.583 305.485 886.337 305.485C882.544 305.485 882.595 305.006 887.043 298.758C894.641 288.09 911.052 251.485 914.909 236.607C918.639 222.213 919.684 204.504 916.592 208.084C915.581 209.254 911.956 216.977 908.537 225.242C892.964 262.891 864.659 303.542 833.821 332.549C817.262 348.124 790.518 369.553 776.994 378.08L771.196 381.736L772.16 358.743C772.784 343.876 771.86 328.03 769.551 313.916C765.56 289.536 764.867 256.648 768.105 245.357C771.196 234.581 766.123 237.098 759.812 249.47C754.22 260.434 753.182 281.968 756.868 310.558C758.978 326.918 756.922 349.646 751.373 371.306C746.349 390.916 733.121 417.574 706.982 460.776C680.011 505.349 669.848 524.901 658.977 553.131C654.69 564.261 650.883 573.685 650.518 574.073C650.15 574.46 648.079 569.416 645.911 562.864C638.743 541.198 618.523 501.769 593.13 459.946C563.198 410.645 554.582 393.191 548.425 369.373C541.919 344.206 540.735 325.378 543.872 296.971C545.932 278.33 545.964 270.107 544.011 262.853C541.607 253.924 531.086 234.626 529.559 236.343C529.183 236.767 530.469 244.85 532.42 254.305C535.808 270.73 535.731 273.183 530.716 309.397C526.396 340.581 525.84 350.344 527.582 364.5C528.745 373.962 529.308 381.702 528.833 381.702C528.357 381.702 518.726 375.399 507.431 367.692C478.084 347.674 439.943 310.007 422.025 283.353C408.968 263.927 384.842 217.356 384.842 211.574C384.842 210.355 383.833 208.734 382.6 207.972C381.289 207.163 380.358 209.483 380.358 213.563ZM295.164 229.264L271.623 235.444L298.226 248.517C320.245 259.34 327.199 261.721 338.582 262.333C350.641 262.983 353.713 262.241 363.544 256.296C372.207 251.059 373.608 249.51 369.709 249.481C363.873 249.436 363.062 246.078 368.193 243.207C371.142 241.557 370.364 240.039 363.461 233.98C358.916 229.99 352.724 225.785 349.697 224.635C340.317 221.068 319.715 222.816 295.164 229.264ZM946.455 226.737C942.756 229.033 937.31 233.541 934.355 236.751C930.044 241.434 929.513 243.227 931.672 245.827C933.838 248.437 933.575 249.221 930.32 249.847C924.056 251.055 948.352 262.896 957.064 262.88C961.093 262.873 968.427 261.752 973.359 260.387C985.56 257.009 1023.8 239.001 1023.8 236.632C1023.8 233.695 976.567 222.543 964.174 222.552C957.365 222.556 950.621 224.148 946.455 226.737ZM443.732 264.207C464.993 284.891 473.602 289.809 488.462 289.762C502.44 289.717 508.099 287.787 506.496 283.609C505.458 280.903 506.258 280.396 510.014 281.378C512.688 282.078 514.877 282.228 514.877 281.712C514.877 277.502 504.135 259.56 499.057 255.285C491.179 248.659 471.248 244.937 444.071 245.023L424.077 245.085L443.732 264.207ZM820.596 247.206C814.262 248.134 806.034 250.69 802.312 252.889C792.593 258.63 778.738 284.913 787.13 281.694C789.352 280.84 790.639 281.58 790.639 283.71C790.639 288.271 795.472 289.793 809.969 289.793C826.526 289.793 835.231 284.817 856.725 263.061L874.607 244.96L853.362 245.24C841.675 245.392 826.932 246.278 820.596 247.206ZM1032.23 287.323C1012.95 313.596 1007.26 327.44 1008.74 344.419C1010.64 366.053 1014.8 382.261 1017.85 379.86C1019.27 378.735 1025.81 376.06 1032.37 373.922C1054.28 366.771 1064.12 351.803 1064.15 325.571C1064.17 306.017 1053.82 272.353 1047.2 270.396C1046.04 270.055 1039.31 277.673 1032.23 287.323ZM248.919 277.585C243.746 285.476 236.911 315.261 236.89 329.996C236.857 352.635 248.67 367.95 271.623 375.036C276.555 376.558 281.712 378.687 283.082 379.768C284.83 381.149 286.781 374.679 289.633 358.042C293.664 334.524 293.659 334.269 289.048 323.354C284.265 312.035 257.205 271.963 254.299 271.898C253.403 271.876 250.981 274.436 248.919 277.585ZM593.948 277.446C566.457 282.43 553.351 290.975 549.468 306.445C548.322 311.002 549.197 313.414 553.29 316.999C557.75 320.906 560.64 321.464 571.43 320.509C588.456 319 597.637 312.964 613.756 292.683C621.027 283.535 626.975 275.61 626.975 275.075C626.975 273.281 610.322 274.478 593.948 277.446ZM679.762 284.75C702.883 313.755 713.735 321.197 732.818 321.143C739.342 321.123 746.192 320.13 748.041 318.935C751.03 317.003 751.03 316.75 748.041 316.658C745.313 316.57 745.42 315.988 748.602 313.573C750.761 311.935 752.525 309.289 752.525 307.691C752.525 302.004 740.533 289.195 731.469 285.205C724.337 282.064 682.365 274.102 672.937 274.102C672.023 274.102 675.094 278.894 679.762 284.75ZM129.258 311.495C129.258 318.007 137.434 344.827 143.324 357.64C150.559 373.375 158.809 382.689 170.226 388.013C181.2 393.131 212.478 396.764 208.128 392.415C206.675 390.963 205.485 388.966 205.485 387.979C205.485 384.565 211.969 386.204 214.886 390.353C217.405 393.935 217.91 391.694 218.488 374.35C219.087 356.356 218.524 352.886 213.276 342.159C208.98 333.381 204.817 328.628 197.84 324.54C187.392 318.418 162.385 311.426 142.149 308.969C130.592 307.566 129.258 307.828 129.258 311.495ZM1145.71 311.242C1135.7 312.925 1121.91 316.393 1115.07 318.951C1088.78 328.788 1081.2 340.745 1080.92 372.861C1080.73 393.514 1080.87 394.137 1084.77 390.234C1088.67 386.334 1095.55 384.666 1095.55 387.621C1095.55 388.41 1093.78 390.385 1091.62 392.012C1088.29 394.523 1090.08 394.783 1103.39 393.738C1123.97 392.122 1132.43 389.371 1141.61 381.308C1154.62 369.893 1163.14 352.02 1170.57 320.617C1174.13 305.544 1175.83 306.182 1145.71 311.242ZM967.501 332.069C945.525 352.646 942.028 358.932 944.007 374.323C944.765 380.232 945.48 387.372 945.592 390.192C945.731 393.655 946.632 394.691 948.37 393.386C949.782 392.324 955.201 390.237 960.409 388.748C966.492 387.009 971.879 383.42 975.473 378.708C982.582 369.387 988.329 344.845 987.472 327.447L986.811 313.99L967.501 332.069ZM604.943 339.279C579.075 342.634 564.819 349.494 558.561 361.592C554.104 370.212 554.364 372.736 559.716 372.736C564.653 372.736 565.839 376.296 561.397 377.784C559.857 378.302 563.902 379.432 570.388 380.295C590.106 382.918 597.621 379.452 620.839 357.033L641.548 337.035L630.338 337.236C624.172 337.346 612.745 338.265 604.943 339.279ZM664.546 342.814C673.484 355.327 697.653 376.524 706.19 379.34C716.015 382.579 742.169 380.579 736.63 377.013C734.137 375.408 734.571 374.675 738.679 373.552C742.959 372.382 743.647 371.079 742.524 366.266C741.773 363.043 737.8 357.239 733.695 353.37C725.288 345.443 707.71 340.615 677.67 337.981L659.986 336.427L664.546 342.814ZM650.545 397.955C639.048 411.369 629.448 432.64 627.807 448.345C625.946 466.147 631.73 479.612 645.276 489.019C650.623 492.733 657.687 497.851 660.974 500.395L666.951 505.022L664.44 498.369C661.77 491.296 663.967 486.107 667.33 491.545C669.832 495.591 669.792 495.638 678.511 478.252C688.968 457.397 687.782 444.604 672.42 412.526C666.073 399.273 660.391 388.428 659.795 388.428C659.199 388.428 655.038 392.716 650.545 397.955ZM314.22 409.376C296.307 415.308 261.478 431.977 262.211 434.27C263.657 438.805 295.374 459.917 307.625 464.501C320.783 469.424 338.308 470.514 347.588 466.987C350.686 465.808 357.15 461.296 361.952 456.958C366.754 452.62 373.112 448.007 376.081 446.709C380.903 444.602 380.661 444.479 373.83 445.548C366.342 446.718 366.265 446.651 370.178 442.329C374.041 438.061 373.919 437.561 366.507 427.245C362.293 421.376 355.71 414.745 351.881 412.508C342.673 407.132 325.354 405.691 314.22 409.376ZM953.181 410.436C942.821 415.355 939.093 419.309 931.656 433.261C928.697 438.809 925.269 444.091 924.036 444.996C922.778 445.92 923.563 446.657 925.822 446.678C928.04 446.696 934.427 451.219 940.019 456.732C955.818 472.305 978.24 473.511 1003.34 460.132C1015.98 453.396 1039.09 435.978 1039.37 432.983C1039.44 432.214 1027.64 426.299 1013.15 419.838C982.103 405.993 967.393 403.687 953.181 410.436ZM142.006 436.063C145.799 440.071 151.671 447.888 155.052 453.436C163.5 467.297 169.304 473.316 179.052 478.312C189.334 483.585 196.035 483.65 213.7 478.646L227.517 474.732L216.621 459.821C208.117 448.18 203.075 443.656 193.641 439.193C181.265 433.34 159.695 428.825 143.952 428.796L135.105 428.778L142.006 436.063ZM1131.69 431.304C1118.25 433.537 1101.31 440.392 1094.8 446.236C1092.44 448.348 1086.58 455.851 1081.78 462.91L1073.03 475.743L1079.24 477.144C1082.66 477.916 1089.18 479.473 1093.73 480.61C1104.53 483.309 1118.66 480.928 1127.62 474.903C1131.56 472.253 1138.96 463.147 1144.06 454.671C1149.16 446.196 1155.59 437.561 1158.35 435.485C1162.81 432.118 1162.94 431.551 1159.53 430.244C1154.8 428.428 1147.28 428.715 1131.69 431.304ZM92.2656 482.35C79.9348 487.08 66.3574 492.401 62.0954 494.174L54.3449 497.398L71.0633 511.238C103.937 538.45 127.801 546.307 147.947 536.556C159.549 530.94 180.27 508.409 175.79 506.282C171.627 504.305 179.05 506.091 207.44 513.899C221.461 517.755 234.577 520.595 236.586 520.207C241.621 519.237 219.118 508.873 190.524 498.996C177.507 494.502 164.197 488.604 160.948 485.894C142.553 470.552 125.341 469.664 92.2656 482.35ZM1146.31 482.639C1137.85 487.781 1119.94 495.91 1106.5 500.7C1082.1 509.404 1058.44 520.203 1060.11 521.873C1060.6 522.359 1070.03 520.247 1081.07 517.179C1092.12 514.11 1105.69 510.579 1111.24 509.335C1116.79 508.091 1123.25 506.488 1125.59 505.775C1128.93 504.76 1129.53 505.313 1128.38 508.319C1126.06 514.361 1138.95 528.62 1152.89 535.442C1174.65 546.085 1192.06 540.716 1228.04 512.267L1246.51 497.663L1219.79 486.308C1198.15 477.115 1190.09 474.797 1177.38 474.123C1162.27 473.32 1161.11 473.641 1146.31 482.639ZM134.684 572.586C135.309 575.48 136.876 585.167 138.165 594.111C142.517 624.27 151.478 637.552 169.535 640.603C174.51 641.444 178.682 643.305 178.806 644.737C179.391 651.57 182.644 634.667 182.834 623.804C183.119 607.487 179.137 601.414 156.379 583.454C134.762 566.393 133.175 565.597 134.684 572.586ZM1146.8 580.715C1120.15 601.887 1117.96 605.306 1118 625.658C1118.02 635.118 1119.01 644.372 1120.21 646.221C1122.1 649.149 1122.38 649.113 1122.42 645.948C1122.44 643.491 1125.18 641.872 1130.86 640.958C1149.14 638.016 1156.77 625.981 1161.84 592.1C1163.7 579.636 1164.81 569.015 1164.29 568.5C1163.77 567.984 1155.9 573.481 1146.8 580.715ZM317.583 599.289C290.465 614.219 279.452 630.52 279.504 655.658C279.524 664.648 280.311 670.785 281.254 669.302C282.198 667.815 284.987 666.753 287.451 666.939C289.915 667.125 296.708 664.964 302.546 662.137C316.059 655.598 322.794 644.354 327.524 620.442C329.475 610.578 331.587 600.24 332.217 597.464C333.692 590.968 332.412 591.127 317.583 599.289ZM967.781 596.344C967.839 605.03 979.219 645.466 983.078 650.704C988.32 657.817 1004.54 666.957 1011.93 666.957C1019.08 666.957 1021.5 663.135 1021.48 651.825C1021.45 633.784 1011.46 620.123 984.757 601.614C969.965 591.36 967.743 590.67 967.781 596.344ZM76.7377 632.161L50 638.108L66.4583 653.522C99.2067 684.195 123.108 688.241 143.69 666.596C147.31 662.787 151.7 659.671 153.44 659.671C157.054 659.671 135.448 633.842 128.908 630.341C120.129 625.645 103.431 626.227 76.7377 632.161ZM1172.89 630.22C1165.48 633.587 1156.29 642.816 1144.58 658.642C1143.54 660.043 1144.69 661.115 1147.44 661.321C1149.97 661.512 1155.28 665.428 1159.25 670.023C1165.82 677.622 1167.71 678.47 1180.02 679.36C1190.18 680.095 1196.01 679.252 1203.43 675.973C1212.73 671.855 1248 643.089 1248 639.615C1248 637.517 1197.33 625.961 1188.59 626.064C1184.89 626.109 1177.83 627.978 1172.89 630.22ZM151.913 686.132C147.766 688.356 134.881 698.192 123.283 707.988L102.195 725.801L118.474 726.469C140.002 727.354 171.154 723.413 177.978 718.941C184.166 714.888 188.98 704.769 191.136 691.274L192.607 682.088H176.03C164.336 682.088 157.233 683.278 151.913 686.132ZM1107.68 687.954C1112.42 707.551 1114.28 712.189 1119.27 716.809C1126.32 723.337 1132.94 724.579 1168.41 726.021L1197.56 727.206L1182.98 713.597C1174.97 706.114 1163.09 696.285 1156.59 691.756C1145.69 684.155 1143.29 683.444 1125.45 682.507L1106.12 681.492L1107.68 687.954ZM216.437 712.082C211.98 713.673 201.198 719.089 192.479 724.115C183.763 729.141 174.371 733.969 171.613 734.844L166.596 736.438L172.028 739.486C183.949 746.178 206.283 751.58 221.975 751.564C239.787 751.549 244.825 749.226 256.736 735.541L263.866 727.348L254.754 719.549C242.291 708.883 231.353 706.751 216.437 712.082ZM850.744 712.127C852.362 715.402 851.275 718.616 846.035 726.047C841.06 733.106 838.951 739.02 838.206 747.991C836.637 766.898 842.78 777.279 867.668 797.788C899.083 823.673 896.984 823.971 895.294 793.883C893.018 753.396 890.023 746.763 867.426 732.152C860.494 727.67 855.656 722.905 855.656 720.555C855.656 718.363 854.077 714.613 852.147 712.218C848.824 708.098 848.75 708.094 850.744 712.127ZM1053.83 713.442C1048.76 716.009 1042.47 720.394 1039.84 723.189L1035.07 728.269L1046.1 739.132C1054.01 746.924 1059.55 750.397 1065.69 751.414C1078.57 753.546 1099.81 750.305 1116.35 743.683L1131.12 737.771L1117.26 730.064C1079.3 708.959 1068.34 706.087 1053.83 713.442ZM445.375 719.681C445.375 722.869 441.748 726.298 433.394 731.013C410.869 743.723 406.989 752.38 403.35 798.03L401.523 820.94L407.195 817.257C419.68 809.146 442.999 789.438 450.559 780.605C465.86 762.732 465.488 741.02 449.525 720.454C445.602 715.399 445.375 715.359 445.375 719.681ZM369.063 722.999C361.003 727.063 355.95 732.613 343.045 751.58C329.748 771.123 327.656 775.376 330.715 776.642C334.127 778.052 334.127 778.178 330.708 778.323C324.238 778.599 313.705 793.085 311.082 805.313C309.725 811.637 308.66 826.091 308.714 837.434L308.813 858.06L328.609 837.383C352.769 812.146 356.177 805.62 355.464 785.972C354.869 769.556 354.639 769.852 372.686 763.748C393.537 756.696 398.175 750.856 401.482 727.482L402.832 717.955H390.949C383.085 717.955 375.684 719.661 369.063 722.999ZM899.789 728.316C901.95 750.829 907.382 757.252 930.883 765.071L945.332 769.879L944.126 784.827C942.527 804.607 945.803 811.016 970.556 836.549L990.174 856.785L990.053 831.642C989.905 801.366 986.14 789.157 974.44 781.022C970.146 778.036 968.449 776.232 970.666 777.01C974.48 778.346 974.5 778.09 971.016 772.287C956.746 748.516 940.967 727.56 934.582 723.9C930.481 721.548 920.861 719.156 912.967 718.522L898.74 717.381L899.789 728.316ZM281.107 753.261C279.593 756.653 273.367 764.055 267.271 769.711C256.532 779.677 256.16 780.446 255.268 794.446C254.537 805.907 255.813 813.959 261.438 833.422C265.337 846.914 268.762 858.188 269.049 858.475C269.336 858.764 275.522 848.306 282.795 835.237C303.421 798.171 304.853 785.58 290.733 765.55C286.2 759.119 284.25 754.183 285.135 751.387C287.202 744.878 284.232 746.261 281.107 753.261ZM1015.7 750.782C1016.76 754.106 1015.59 757.5 1011.86 761.973C1003.3 772.228 999.142 782.047 999.142 792.029C999.142 801.076 1005.23 815.082 1023.33 847.67L1030.01 859.696L1032.37 852.153C1049.03 798.812 1048.4 780.484 1029.41 766.001C1025.09 762.708 1021.56 758.24 1021.56 756.073C1021.56 753.903 1019.9 750.753 1017.88 749.069C1014.61 746.362 1014.36 746.559 1015.7 750.782ZM244.372 771.879C243.069 773.181 237.231 774.712 231.4 775.284C217.953 776.599 209.415 781.018 202.487 790.247C197.129 797.382 177.812 841.225 179.348 842.763C181.169 844.581 226.905 822.964 232.424 817.676C239.159 811.225 243.659 798.967 245.784 781.282C246.562 774.811 247.094 769.514 246.968 769.514C246.84 769.514 245.672 770.578 244.372 771.879ZM1052.23 779.653C1053.87 796.414 1059.07 810.689 1065.93 817.257C1071.13 822.238 1115.19 843.489 1120.31 843.489C1122.82 843.489 1102.74 798.698 1096.59 790.565C1089.85 781.661 1078.39 776.239 1066.31 776.239C1059.89 776.239 1055.89 774.981 1053.97 772.367C1051.59 769.112 1051.32 770.276 1052.23 779.653Z" fill="#F5F5F5" stroke="#161616" stroke-width="8" mask="url(#path-1-inside-1_3_24)"/>
<mask id="path-2-inside-2_3_24" fill="white">
<path d="M220.36 979.105C211.823 986.809 190.311 1006.73 172.555 1023.37C154.798 1040.01 122.487 1069.99 100.75 1090C79.0144 1110 61.229 1127.34 61.229 1128.53C61.229 1129.77 65.2056 1130.14 70.6917 1129.39C86.7515 1127.21 171.815 1123.72 208.179 1123.75C354.906 1123.87 443.924 1143.89 520.164 1193.91C545.624 1210.62 581.041 1243.82 599.263 1268.07C611.346 1284.15 613.159 1285.36 620.642 1282.39C624.12 1281.02 623.576 1279.19 615.657 1265.62C585.071 1213.21 537.842 1170.35 478.753 1141.4C413.763 1109.56 362.013 1099.72 248.639 1097.65L176.658 1096.34L188.523 1084.27C195.047 1077.63 224.167 1049.94 253.232 1022.74C294.227 984.379 305.214 972.969 302.215 971.87C300.091 971.09 287.331 969.761 273.861 968.916C260.39 968.071 246.334 966.864 242.625 966.238C236.769 965.248 233.833 966.945 220.36 979.105ZM1014.91 969.687C1004.9 970.401 996.114 971.589 995.379 972.329C994.644 973.07 1023.15 1001.67 1058.71 1035.88L1123.38 1098.07L1040.39 1099.47C994.744 1100.23 948.883 1102.04 938.474 1103.47C827.017 1118.88 750.677 1160.44 698.345 1234.22C686.215 1251.32 671.293 1277.04 671.293 1280.84C671.293 1281.49 673.624 1282.02 676.474 1282.02C680.335 1282.02 686.609 1276.06 701.095 1258.6C756.515 1191.84 828.495 1153.2 927.341 1137.15C987.27 1127.42 1081.87 1126.26 1193.22 1133.91C1218.83 1135.66 1240.38 1136.49 1241.09 1135.74C1241.81 1135 1233.38 1125.82 1222.35 1115.35C1171.79 1067.33 1083.24 985.059 1073.22 976.791C1060.94 966.657 1059.67 966.501 1014.91 969.687ZM259.578 1029.51L198.54 1086.93L259.578 1088.4C324.436 1089.97 353.605 1092.99 396.219 1102.56C497.781 1125.37 576.526 1180.43 623.396 1261.4L634.043 1279.79L647.658 1279.7L661.273 1279.61L666.646 1268.15C691.432 1215.32 750.445 1157.92 808.205 1130.46C868.399 1101.85 919.773 1092.58 1027.45 1090.9L1101.96 1089.74L1096.47 1085.36C1089.94 1080.14 1056.49 1047.94 1011.63 1003.68L979.028 971.516L960.421 974.211C908.334 981.759 854.857 995.045 820.892 1008.88C779.412 1025.77 735.296 1062.43 700.228 1109.17C682.759 1132.44 649.794 1185.89 647.6 1194.49C646.558 1198.58 643.484 1194.52 630.737 1172.2C588.447 1098.15 534.977 1042.63 480.926 1016.65C471.13 1011.94 452.738 1004.5 440.059 1000.12C412.321 990.535 349.874 974.889 332.863 973.264L320.617 972.091L259.578 1029.51ZM125.798 1135.09C79.3239 1136.99 63.4555 1138.58 63.4555 1141.31C63.4555 1143.27 97.9753 1194.58 102.426 1199.24C104.806 1201.73 124.308 1202.39 207.417 1202.79C265.609 1203.08 321.448 1204.44 337.316 1205.96C449.25 1216.72 523.804 1241.19 585.105 1287.31C590.682 1291.51 593.398 1292.25 597.475 1290.69L602.698 1288.7L598.19 1281.57C589.021 1267.06 564.434 1240.15 546.328 1224.81C457.648 1149.63 347.048 1126.03 125.798 1135.09ZM998.567 1139.38C885.694 1144.83 800.831 1174.83 739.306 1231C722.736 1246.13 691.331 1282.03 691.331 1285.84C691.331 1291.93 701.435 1288.15 722.266 1274.27C748.292 1256.92 769.359 1246.91 805.021 1234.97C873.789 1211.95 934.544 1205.98 1095.44 1206.47L1195.64 1206.77L1217.26 1178.09C1229.16 1162.32 1238.13 1148.66 1237.21 1147.73C1232.12 1142.64 1057.52 1136.53 998.567 1139.38ZM132.972 1212.62L105.635 1214.02L87.8403 1239.66L70.046 1265.3L264.354 1266.57C430.761 1267.66 462.435 1268.39 484.936 1271.64C517.548 1276.34 543.983 1282.44 562.477 1289.51C570.28 1292.5 578.67 1295.63 581.119 1296.47L585.572 1297.99L581.119 1294.28C578.67 1292.24 565.144 1283.74 551.061 1275.4C494.401 1241.81 426.21 1222.87 334.756 1215.29C300.243 1212.44 170.348 1210.72 132.972 1212.62ZM955.173 1217.62C877.563 1222.19 807.108 1238.44 757.975 1263.08C739.974 1272.1 707.905 1293.87 711.058 1294.93C712.568 1295.43 722.022 1292.32 732.068 1288.01C762.784 1274.82 787.866 1269.63 836.812 1266.31C867.902 1264.2 962.155 1265.27 1166.4 1270.04L1230.68 1271.54L1212.79 1244.8L1194.9 1218.06L1174.33 1216.6C1146.56 1214.62 993.95 1215.34 955.173 1217.62ZM1221.15 1234.08C1224.12 1238.99 1231.37 1250.77 1237.26 1260.26C1243.14 1269.75 1247.96 1278.65 1247.96 1280.03C1247.96 1281.82 1241.99 1282.16 1227.36 1281.19C1188.87 1278.64 926.5 1274.78 867.226 1275.89C802.906 1277.09 785.606 1279.31 749.221 1290.98C721.567 1299.85 719.933 1300.96 726.394 1306.39C731.302 1310.52 731.673 1310.52 745.32 1306.38C795.069 1291.29 819.999 1290.25 1057.59 1293.35C1221.86 1295.49 1258.88 1296.52 1262.99 1299.08C1265.74 1300.79 1268 1302.92 1268 1303.81C1268 1304.71 1177.57 1304.3 1067.06 1302.9C943.931 1301.35 852.435 1301.14 830.793 1302.35C785.506 1304.9 740.315 1313.68 740.315 1319.94C740.315 1324.32 746.429 1324.68 762.885 1321.29C798.598 1313.92 840.877 1313.01 1075.04 1314.6L1304 1316.16L1276.39 1288.5C1261.2 1273.29 1241.34 1252.81 1232.26 1243C1219.9 1229.65 1217.1 1227.41 1221.15 1234.08ZM38.9639 1266.37L0 1304.11L24.4916 1304.22C70.0015 1304.42 411.624 1310.8 447.528 1312.13C488.421 1313.64 513.667 1316.22 538.361 1321.42C550.754 1324.03 556.403 1324.39 558.115 1322.67C561.715 1319.07 535.362 1311.64 504.632 1307.6C470.439 1303.11 377.155 1300.46 187.492 1298.59C34.8093 1297.09 18.6292 1296.17 41.1748 1290.32C50.2412 1287.97 429.741 1292.41 474.247 1295.39C507.849 1297.64 534.463 1302.01 554.118 1308.5L566.484 1312.59L571.126 1307.64L575.771 1302.69L556.95 1296.68C534.017 1289.37 504.024 1283.09 474.276 1279.37C457.949 1277.32 398.196 1276.56 251.041 1276.51C140.524 1276.48 50.0987 1275.66 50.0987 1274.69C50.0965 1273.72 51.94 1270.21 54.1932 1266.88C62.3556 1254.84 79.0634 1228.51 78.5023 1228.57C78.1861 1228.6 60.3941 1245.61 38.9639 1266.37ZM629.138 1289.01C580.177 1297.15 540.427 1343.86 537.381 1396.85L536.74 1408H649.66H762.58L762.524 1396.85C762.288 1347.94 722.048 1300.4 671.865 1289.75C655.124 1286.2 646.928 1286.06 629.138 1289.01ZM8.90604 1315.47C1.40047 1316.81 2.62728 1317.11 16.6988 1317.37C25.8832 1317.54 70.97 1318.67 116.892 1319.87C162.814 1321.08 242.467 1323.15 293.899 1324.46C432.689 1327.99 491.729 1332.13 529.825 1341C541.788 1343.78 543.322 1343.72 545.873 1340.36C550.142 1334.74 549.545 1333.72 540.485 1331.13C507.502 1321.68 434.265 1318.62 193.706 1316.62C107.986 1315.9 33.342 1314.99 27.8314 1314.6C22.3208 1314.2 13.8044 1314.59 8.90604 1315.47ZM685.841 1321.87C693.934 1325.66 704.886 1333.29 710.947 1339.36C720.799 1349.23 733.635 1371.27 733.635 1378.32C733.635 1380.69 717.615 1381.18 649.584 1380.93C579.964 1380.68 565.654 1380.1 566.23 1377.59C568.361 1368.32 578.55 1350.21 586.48 1341.59C596.224 1331 616.271 1319.12 630.365 1315.58C645.904 1311.67 669.883 1314.39 685.841 1321.87ZM826.035 1324.29C782.897 1326.26 750.735 1330.63 752.505 1334.26C753.146 1335.57 754.317 1338.51 755.105 1340.79C756.314 1344.27 757.986 1344.68 765.683 1343.42C818.073 1334.84 874.286 1332.8 1138.86 1329.86C1214.17 1329.02 1277.29 1327.48 1279.13 1326.43C1281 1325.36 1212.51 1324.49 1123.08 1324.45C1035.41 1324.42 941.23 1323.97 913.786 1323.47C886.34 1322.96 846.853 1323.33 826.035 1324.29Z"/>
</mask>
<path d="M220.36 979.105C211.823 986.809 190.311 1006.73 172.555 1023.37C154.798 1040.01 122.487 1069.99 100.75 1090C79.0144 1110 61.229 1127.34 61.229 1128.53C61.229 1129.77 65.2056 1130.14 70.6917 1129.39C86.7515 1127.21 171.815 1123.72 208.179 1123.75C354.906 1123.87 443.924 1143.89 520.164 1193.91C545.624 1210.62 581.041 1243.82 599.263 1268.07C611.346 1284.15 613.159 1285.36 620.642 1282.39C624.12 1281.02 623.576 1279.19 615.657 1265.62C585.071 1213.21 537.842 1170.35 478.753 1141.4C413.763 1109.56 362.013 1099.72 248.639 1097.65L176.658 1096.34L188.523 1084.27C195.047 1077.63 224.167 1049.94 253.232 1022.74C294.227 984.379 305.214 972.969 302.215 971.87C300.091 971.09 287.331 969.761 273.861 968.916C260.39 968.071 246.334 966.864 242.625 966.238C236.769 965.248 233.833 966.945 220.36 979.105ZM1014.91 969.687C1004.9 970.401 996.114 971.589 995.379 972.329C994.644 973.07 1023.15 1001.67 1058.71 1035.88L1123.38 1098.07L1040.39 1099.47C994.744 1100.23 948.883 1102.04 938.474 1103.47C827.017 1118.88 750.677 1160.44 698.345 1234.22C686.215 1251.32 671.293 1277.04 671.293 1280.84C671.293 1281.49 673.624 1282.02 676.474 1282.02C680.335 1282.02 686.609 1276.06 701.095 1258.6C756.515 1191.84 828.495 1153.2 927.341 1137.15C987.27 1127.42 1081.87 1126.26 1193.22 1133.91C1218.83 1135.66 1240.38 1136.49 1241.09 1135.74C1241.81 1135 1233.38 1125.82 1222.35 1115.35C1171.79 1067.33 1083.24 985.059 1073.22 976.791C1060.94 966.657 1059.67 966.501 1014.91 969.687ZM259.578 1029.51L198.54 1086.93L259.578 1088.4C324.436 1089.97 353.605 1092.99 396.219 1102.56C497.781 1125.37 576.526 1180.43 623.396 1261.4L634.043 1279.79L647.658 1279.7L661.273 1279.61L666.646 1268.15C691.432 1215.32 750.445 1157.92 808.205 1130.46C868.399 1101.85 919.773 1092.58 1027.45 1090.9L1101.96 1089.74L1096.47 1085.36C1089.94 1080.14 1056.49 1047.94 1011.63 1003.68L979.028 971.516L960.421 974.211C908.334 981.759 854.857 995.045 820.892 1008.88C779.412 1025.77 735.296 1062.43 700.228 1109.17C682.759 1132.44 649.794 1185.89 647.6 1194.49C646.558 1198.58 643.484 1194.52 630.737 1172.2C588.447 1098.15 534.977 1042.63 480.926 1016.65C471.13 1011.94 452.738 1004.5 440.059 1000.12C412.321 990.535 349.874 974.889 332.863 973.264L320.617 972.091L259.578 1029.51ZM125.798 1135.09C79.3239 1136.99 63.4555 1138.58 63.4555 1141.31C63.4555 1143.27 97.9753 1194.58 102.426 1199.24C104.806 1201.73 124.308 1202.39 207.417 1202.79C265.609 1203.08 321.448 1204.44 337.316 1205.96C449.25 1216.72 523.804 1241.19 585.105 1287.31C590.682 1291.51 593.398 1292.25 597.475 1290.69L602.698 1288.7L598.19 1281.57C589.021 1267.06 564.434 1240.15 546.328 1224.81C457.648 1149.63 347.048 1126.03 125.798 1135.09ZM998.567 1139.38C885.694 1144.83 800.831 1174.83 739.306 1231C722.736 1246.13 691.331 1282.03 691.331 1285.84C691.331 1291.93 701.435 1288.15 722.266 1274.27C748.292 1256.92 769.359 1246.91 805.021 1234.97C873.789 1211.95 934.544 1205.98 1095.44 1206.47L1195.64 1206.77L1217.26 1178.09C1229.16 1162.32 1238.13 1148.66 1237.21 1147.73C1232.12 1142.64 1057.52 1136.53 998.567 1139.38ZM132.972 1212.62L105.635 1214.02L87.8403 1239.66L70.046 1265.3L264.354 1266.57C430.761 1267.66 462.435 1268.39 484.936 1271.64C517.548 1276.34 543.983 1282.44 562.477 1289.51C570.28 1292.5 578.67 1295.63 581.119 1296.47L585.572 1297.99L581.119 1294.28C578.67 1292.24 565.144 1283.74 551.061 1275.4C494.401 1241.81 426.21 1222.87 334.756 1215.29C300.243 1212.44 170.348 1210.72 132.972 1212.62ZM955.173 1217.62C877.563 1222.19 807.108 1238.44 757.975 1263.08C739.974 1272.1 707.905 1293.87 711.058 1294.93C712.568 1295.43 722.022 1292.32 732.068 1288.01C762.784 1274.82 787.866 1269.63 836.812 1266.31C867.902 1264.2 962.155 1265.27 1166.4 1270.04L1230.68 1271.54L1212.79 1244.8L1194.9 1218.06L1174.33 1216.6C1146.56 1214.62 993.95 1215.34 955.173 1217.62ZM1221.15 1234.08C1224.12 1238.99 1231.37 1250.77 1237.26 1260.26C1243.14 1269.75 1247.96 1278.65 1247.96 1280.03C1247.96 1281.82 1241.99 1282.16 1227.36 1281.19C1188.87 1278.64 926.5 1274.78 867.226 1275.89C802.906 1277.09 785.606 1279.31 749.221 1290.98C721.567 1299.85 719.933 1300.96 726.394 1306.39C731.302 1310.52 731.673 1310.52 745.32 1306.38C795.069 1291.29 819.999 1290.25 1057.59 1293.35C1221.86 1295.49 1258.88 1296.52 1262.99 1299.08C1265.74 1300.79 1268 1302.92 1268 1303.81C1268 1304.71 1177.57 1304.3 1067.06 1302.9C943.931 1301.35 852.435 1301.14 830.793 1302.35C785.506 1304.9 740.315 1313.68 740.315 1319.94C740.315 1324.32 746.429 1324.68 762.885 1321.29C798.598 1313.92 840.877 1313.01 1075.04 1314.6L1304 1316.16L1276.39 1288.5C1261.2 1273.29 1241.34 1252.81 1232.26 1243C1219.9 1229.65 1217.1 1227.41 1221.15 1234.08ZM38.9639 1266.37L0 1304.11L24.4916 1304.22C70.0015 1304.42 411.624 1310.8 447.528 1312.13C488.421 1313.64 513.667 1316.22 538.361 1321.42C550.754 1324.03 556.403 1324.39 558.115 1322.67C561.715 1319.07 535.362 1311.64 504.632 1307.6C470.439 1303.11 377.155 1300.46 187.492 1298.59C34.8093 1297.09 18.6292 1296.17 41.1748 1290.32C50.2412 1287.97 429.741 1292.41 474.247 1295.39C507.849 1297.64 534.463 1302.01 554.118 1308.5L566.484 1312.59L571.126 1307.64L575.771 1302.69L556.95 1296.68C534.017 1289.37 504.024 1283.09 474.276 1279.37C457.949 1277.32 398.196 1276.56 251.041 1276.51C140.524 1276.48 50.0987 1275.66 50.0987 1274.69C50.0965 1273.72 51.94 1270.21 54.1932 1266.88C62.3556 1254.84 79.0634 1228.51 78.5023 1228.57C78.1861 1228.6 60.3941 1245.61 38.9639 1266.37ZM629.138 1289.01C580.177 1297.15 540.427 1343.86 537.381 1396.85L536.74 1408H649.66H762.58L762.524 1396.85C762.288 1347.94 722.048 1300.4 671.865 1289.75C655.124 1286.2 646.928 1286.06 629.138 1289.01ZM8.90604 1315.47C1.40047 1316.81 2.62728 1317.11 16.6988 1317.37C25.8832 1317.54 70.97 1318.67 116.892 1319.87C162.814 1321.08 242.467 1323.15 293.899 1324.46C432.689 1327.99 491.729 1332.13 529.825 1341C541.788 1343.78 543.322 1343.72 545.873 1340.36C550.142 1334.74 549.545 1333.72 540.485 1331.13C507.502 1321.68 434.265 1318.62 193.706 1316.62C107.986 1315.9 33.342 1314.99 27.8314 1314.6C22.3208 1314.2 13.8044 1314.59 8.90604 1315.47ZM685.841 1321.87C693.934 1325.66 704.886 1333.29 710.947 1339.36C720.799 1349.23 733.635 1371.27 733.635 1378.32C733.635 1380.69 717.615 1381.18 649.584 1380.93C579.964 1380.68 565.654 1380.1 566.23 1377.59C568.361 1368.32 578.55 1350.21 586.48 1341.59C596.224 1331 616.271 1319.12 630.365 1315.58C645.904 1311.67 669.883 1314.39 685.841 1321.87ZM826.035 1324.29C782.897 1326.26 750.735 1330.63 752.505 1334.26C753.146 1335.57 754.317 1338.51 755.105 1340.79C756.314 1344.27 757.986 1344.68 765.683 1343.42C818.073 1334.84 874.286 1332.8 1138.86 1329.86C1214.17 1329.02 1277.29 1327.48 1279.13 1326.43C1281 1325.36 1212.51 1324.49 1123.08 1324.45C1035.41 1324.42 941.23 1323.97 913.786 1323.47C886.34 1322.96 846.853 1323.33 826.035 1324.29Z" fill="#F5F5F5" stroke="#161616" stroke-width="8" mask="url(#path-2-inside-2_3_24)"/>
</svg>
